<?xml version="1.0" encoding="UTF-8" standalone="no"?>
<!DOCTYPE svg PUBLIC "-//W3C//DTD SVG 1.1//EN"
 "http://www.w3.org/Graphics/SVG/1.1/DTD/svg11.dtd">
<!-- Generated by graphviz version 12.2.1 (0)
 -->
<!-- Pages: 1 -->
<svg width="1672pt" height="256pt"
 viewBox="0.00 0.00 1672.49 255.68" xmlns="http://www.w3.org/2000/svg" xmlns:xlink="http://www.w3.org/1999/xlink">
<g id="graph0" class="graph" transform="scale(1 1) rotate(0) translate(4 251.68)">
<polygon fill="#ffffff" stroke="none" points="-4,4 -4,-251.68 1668.49,-251.68 1668.49,4 -4,4"/>
<!-- A -->
<g id="node1" class="node">
<title>A</title>
<polygon fill="#ffffff" stroke="black" points="132.66,-192.81 4.16,-192.81 4.16,-97.81 132.66,-97.81 132.66,-192.81"/>
<polygon fill="none" stroke="black" points="4.16,-169.06 4.16,-192.81 132.66,-192.81 132.66,-169.06 4.16,-169.06"/>
<text text-anchor="start" x="63.91" y="-175.51" font-family="arial" font-size="14.00">A</text>
<polygon fill="none" stroke="black" points="4.16,-145.31 4.16,-169.06 94.66,-169.06 94.66,-145.31 4.16,-145.31"/>
<text text-anchor="start" x="8.16" y="-151.76" font-family="arial" font-size="14.00">2&#45;pin terminal</text>
<polygon fill="none" stroke="black" points="94.66,-145.31 94.66,-169.06 132.66,-169.06 132.66,-145.31 94.66,-145.31"/>
<text text-anchor="start" x="98.66" y="-151.76" font-family="arial" font-size="14.00">2&#45;pin</text>
<polygon fill="none" stroke="black" points="4.16,-121.56 4.16,-145.31 39.74,-145.31 39.74,-121.56 4.16,-121.56"/>
<text text-anchor="start" x="18.2" y="-128.01" font-family="arial" font-size="14.00">1</text>
<polygon fill="none" stroke="black" points="39.74,-121.56 39.74,-145.31 97.07,-145.31 97.07,-121.56 39.74,-121.56"/>
<text text-anchor="start" x="53.78" y="-128.01" font-family="arial" font-size="14.00">OUT</text>
<polygon fill="none" stroke="black" points="97.07,-121.56 97.07,-145.31 132.66,-145.31 132.66,-121.56 97.07,-121.56"/>
<text text-anchor="start" x="111.11" y="-128.01" font-family="arial" font-size="14.00">1</text>
<polygon fill="none" stroke="black" points="4.16,-97.81 4.16,-121.56 39.74,-121.56 39.74,-97.81 4.16,-97.81"/>
<text text-anchor="start" x="18.2" y="-104.26" font-family="arial" font-size="14.00">2</text>
<polygon fill="none" stroke="black" points="39.74,-97.81 39.74,-121.56 97.07,-121.56 97.07,-97.81 39.74,-97.81"/>
<text text-anchor="start" x="54.53" y="-104.26" font-family="arial" font-size="14.00">RTN</text>
<polygon fill="none" stroke="black" points="97.07,-97.81 97.07,-121.56 132.66,-121.56 132.66,-97.81 97.07,-97.81"/>
<text text-anchor="start" x="111.11" y="-104.26" font-family="arial" font-size="14.00">2</text>
</g>
<!-- W_AB -->
<g id="node4" class="node">
<title>W_AB</title>
<polygon fill="#ffffff" stroke="black" points="443.91,-247.68 276.66,-247.68 276.66,-134.93 443.91,-134.93 443.91,-247.68"/>
<polygon fill="none" stroke="black" points="276.66,-223.93 276.66,-247.68 443.91,-247.68 443.91,-223.93 276.66,-223.93"/>
<text text-anchor="start" x="340.78" y="-230.38" font-family="arial" font-size="14.00">W_AB</text>
<polygon fill="none" stroke="black" points="276.66,-200.18 276.66,-223.93 350.16,-223.93 350.16,-200.18 276.66,-200.18"/>
<text text-anchor="start" x="306.28" y="-206.63" font-family="arial" font-size="14.00">1x</text>
<polygon fill="none" stroke="black" points="350.16,-200.18 350.16,-223.93 443.91,-223.93 443.91,-200.18 350.16,-200.18"/>
<text text-anchor="start" x="379.78" y="-206.63" font-family="arial" font-size="14.00">0.2 m</text>
<text text-anchor="start" x="303.41" y="-184.88" font-family="arial" font-size="14.00"> </text>
<text text-anchor="start" x="278.66" y="-165.13" font-family="arial" font-size="14.00">A:1:OUT</text>
<text text-anchor="start" x="335.91" y="-165.13" font-family="arial" font-size="14.00"> &#160;&#160;&#160;&#160;1:RD &#160;&#160;&#160;</text>
<text text-anchor="start" x="404.41" y="-165.13" font-family="arial" font-size="14.00">B:1:IN</text>
<polygon fill="#000000" stroke="none" points="276.66,-158.68 276.66,-160.68 443.91,-160.68 443.91,-158.68 276.66,-158.68"/>
<polygon fill="#ff0000" stroke="none" points="276.66,-156.68 276.66,-158.68 443.91,-158.68 443.91,-156.68 276.66,-156.68"/>
<polygon fill="#000000" stroke="none" points="276.66,-154.68 276.66,-156.68 443.91,-156.68 443.91,-154.68 276.66,-154.68"/>
<text text-anchor="start" x="303.41" y="-139.38" font-family="arial" font-size="14.00"> </text>
</g>
<!-- A&#45;&#45;W_AB -->
<g id="edge1" class="edge">
<title>A:e&#45;&#45;W_AB:w</title>
<path fill="none" stroke="#000000" stroke-width="2" d="M132.66,-131.43C199.28,-132.42 213.48,-156.67 276.66,-155.68"/>
<path fill="none" stroke="#ff0000" stroke-width="2" d="M132.66,-133.43C197.56,-133.43 211.75,-157.68 276.66,-157.68"/>
<path fill="none" stroke="#000000" stroke-width="2" d="M132.66,-135.43C195.83,-134.44 210.03,-158.69 276.66,-159.68"/>
</g>
<!-- B -->
<g id="node2" class="node">
<title>B</title>
<polygon fill="#ffffff" stroke="black" points="746.41,-232.81 587.91,-232.81 587.91,-137.81 746.41,-137.81 746.41,-232.81"/>
<polygon fill="none" stroke="black" points="587.91,-209.06 587.91,-232.81 746.41,-232.81 746.41,-209.06 587.91,-209.06"/>
<text text-anchor="start" x="662.66" y="-215.51" font-family="arial" font-size="14.00">B</text>
<polygon fill="none" stroke="black" points="587.91,-185.31 587.91,-209.06 708.41,-209.06 708.41,-185.31 587.91,-185.31"/>
<text text-anchor="start" x="591.91" y="-191.76" font-family="arial" font-size="14.00">2&#45;pin pass&#45;through</text>
<polygon fill="none" stroke="black" points="708.41,-185.31 708.41,-209.06 746.41,-209.06 746.41,-185.31 708.41,-185.31"/>
<text text-anchor="start" x="712.41" y="-191.76" font-family="arial" font-size="14.00">2&#45;pin</text>
<polygon fill="none" stroke="black" points="587.91,-161.56 587.91,-185.31 633.49,-185.31 633.49,-161.56 587.91,-161.56"/>
<text text-anchor="start" x="606.95" y="-168.01" font-family="arial" font-size="14.00">1</text>
<polygon fill="none" stroke="black" points="633.49,-161.56 633.49,-185.31 700.82,-185.31 700.82,-161.56 633.49,-161.56"/>
<text text-anchor="start" x="660.41" y="-168.01" font-family="arial" font-size="14.00">IN</text>
<polygon fill="none" stroke="black" points="700.82,-161.56 700.82,-185.31 746.41,-185.31 746.41,-161.56 700.82,-161.56"/>
<text text-anchor="start" x="719.86" y="-168.01" font-family="arial" font-size="14.00">1</text>
<polygon fill="none" stroke="black" points="587.91,-137.81 587.91,-161.56 633.49,-161.56 633.49,-137.81 587.91,-137.81"/>
<text text-anchor="start" x="606.95" y="-144.26" font-family="arial" font-size="14.00">2</text>
<polygon fill="none" stroke="black" points="633.49,-137.81 633.49,-161.56 700.82,-161.56 700.82,-137.81 633.49,-137.81"/>
<text text-anchor="start" x="652.53" y="-144.26" font-family="arial" font-size="14.00">OUT</text>
<polygon fill="none" stroke="black" points="700.82,-137.81 700.82,-161.56 746.41,-161.56 746.41,-137.81 700.82,-137.81"/>
<text text-anchor="start" x="719.86" y="-144.26" font-family="arial" font-size="14.00">2</text>
</g>
<!-- W_BC -->
<g id="node5" class="node">
<title>W_BC</title>
<polygon fill="#ffffff" stroke="black" points="1058.41,-247.68 890.41,-247.68 890.41,-134.93 1058.41,-134.93 1058.41,-247.68"/>
<polygon fill="none" stroke="black" points="890.41,-223.93 890.41,-247.68 1058.41,-247.68 1058.41,-223.93 890.41,-223.93"/>
<text text-anchor="start" x="954.53" y="-230.38" font-family="arial" font-size="14.00">W_BC</text>
<polygon fill="none" stroke="black" points="890.41,-200.18 890.41,-223.93 964.28,-223.93 964.28,-200.18 890.41,-200.18"/>
<text text-anchor="start" x="920.22" y="-206.63" font-family="arial" font-size="14.00">1x</text>
<polygon fill="none" stroke="black" points="964.28,-200.18 964.28,-223.93 1058.41,-223.93 1058.41,-200.18 964.28,-200.18"/>
<text text-anchor="start" x="994.09" y="-206.63" font-family="arial" font-size="14.00">0.2 m</text>
<text text-anchor="start" x="917.16" y="-184.88" font-family="arial" font-size="14.00"> </text>
<text text-anchor="start" x="892.41" y="-165.13" font-family="arial" font-size="14.00">B:2:OUT</text>
<text text-anchor="start" x="949.66" y="-165.13" font-family="arial" font-size="14.00"> &#160;&#160;&#160;&#160;1:RD &#160;&#160;&#160;</text>
<text text-anchor="start" x="1018.16" y="-165.13" font-family="arial" font-size="14.00">C:1:IN</text>
<polygon fill="#000000" stroke="none" points="890.41,-158.68 890.41,-160.68 1058.41,-160.68 1058.41,-158.68 890.41,-158.68"/>
<polygon fill="#ff0000" stroke="none" points="890.41,-156.68 890.41,-158.68 1058.41,-158.68 1058.41,-156.68 890.41,-156.68"/>
<polygon fill="#000000" stroke="none" points="890.41,-154.68 890.41,-156.68 1058.41,-156.68 1058.41,-154.68 890.41,-154.68"/>
<text text-anchor="start" x="917.16" y="-139.38" font-family="arial" font-size="14.00"> </text>
</g>
<!-- B&#45;&#45;W_BC -->
<g id="edge3" class="edge">
<title>B:e&#45;&#45;W_BC:w</title>
<path fill="none" stroke="#000000" stroke-width="2" d="M746.41,-147.68C811.41,-147.9 827.21,-155.9 890.41,-155.68"/>
<path fill="none" stroke="#ff0000" stroke-width="2" d="M746.41,-149.68C810.5,-149.68 826.31,-157.68 890.41,-157.68"/>
<path fill="none" stroke="#000000" stroke-width="2" d="M746.41,-151.68C809.6,-151.46 825.4,-159.46 890.41,-159.68"/>
</g>
<!-- C -->
<g id="node3" class="node">
<title>C</title>
<polygon fill="#ffffff" stroke="black" points="1333.91,-224.81 1202.41,-224.81 1202.41,-129.81 1333.91,-129.81 1333.91,-224.81"/>
<polygon fill="none" stroke="black" points="1202.41,-201.06 1202.41,-224.81 1333.91,-224.81 1333.91,-201.06 1202.41,-201.06"/>
<text text-anchor="start" x="1263.28" y="-207.51" font-family="arial" font-size="14.00">C</text>
<polygon fill="none" stroke="black" points="1202.41,-177.31 1202.41,-201.06 1295.91,-201.06 1295.91,-177.31 1202.41,-177.31"/>
<text text-anchor="start" x="1206.41" y="-183.76" font-family="arial" font-size="14.00">2&#45;pin endpoint</text>
<polygon fill="none" stroke="black" points="1295.91,-177.31 1295.91,-201.06 1333.91,-201.06 1333.91,-177.31 1295.91,-177.31"/>
<text text-anchor="start" x="1299.91" y="-183.76" font-family="arial" font-size="14.00">2&#45;pin</text>
<polygon fill="none" stroke="black" points="1202.41,-153.56 1202.41,-177.31 1239.49,-177.31 1239.49,-153.56 1202.41,-153.56"/>
<text text-anchor="start" x="1217.2" y="-160.01" font-family="arial" font-size="14.00">1</text>
<polygon fill="none" stroke="black" points="1239.49,-153.56 1239.49,-177.31 1296.82,-177.31 1296.82,-153.56 1239.49,-153.56"/>
<text text-anchor="start" x="1261.41" y="-160.01" font-family="arial" font-size="14.00">IN</text>
<polygon fill="none" stroke="black" points="1296.82,-153.56 1296.82,-177.31 1333.91,-177.31 1333.91,-153.56 1296.82,-153.56"/>
<text text-anchor="start" x="1311.61" y="-160.01" font-family="arial" font-size="14.00">1</text>
<polygon fill="none" stroke="black" points="1202.41,-129.81 1202.41,-153.56 1239.49,-153.56 1239.49,-129.81 1202.41,-129.81"/>
<text text-anchor="start" x="1217.2" y="-136.26" font-family="arial" font-size="14.00">2</text>
<polygon fill="none" stroke="black" points="1239.49,-129.81 1239.49,-153.56 1296.82,-153.56 1296.82,-129.81 1239.49,-129.81"/>
<text text-anchor="start" x="1254.28" y="-136.26" font-family="arial" font-size="14.00">RTN</text>
<polygon fill="none" stroke="black" points="1296.82,-129.81 1296.82,-153.56 1333.91,-153.56 1333.91,-129.81 1296.82,-129.81"/>
<text text-anchor="start" x="1311.61" y="-136.26" font-family="arial" font-size="14.00">2</text>
</g>
<!-- W_CA -->
<g id="node6" class="node">
<title>W_CA</title>
<polygon fill="#ffffff" stroke="black" points="1657.16,-206.68 1477.91,-206.68 1477.91,-93.93 1657.16,-93.93 1657.16,-206.68"/>
<polygon fill="none" stroke="black" points="1477.91,-182.93 1477.91,-206.68 1657.16,-206.68 1657.16,-182.93 1477.91,-182.93"/>
<text text-anchor="start" x="1547.66" y="-189.38" font-family="arial" font-size="14.00">W_CA</text>
<polygon fill="none" stroke="black" points="1477.91,-159.18 1477.91,-182.93 1557.41,-182.93 1557.41,-159.18 1477.91,-159.18"/>
<text text-anchor="start" x="1510.53" y="-165.63" font-family="arial" font-size="14.00">1x</text>
<polygon fill="none" stroke="black" points="1557.41,-159.18 1557.41,-182.93 1657.16,-182.93 1657.16,-159.18 1557.41,-159.18"/>
<text text-anchor="start" x="1590.03" y="-165.63" font-family="arial" font-size="14.00">0.5 m</text>
<text text-anchor="start" x="1504.28" y="-143.88" font-family="arial" font-size="14.00"> </text>
<text text-anchor="start" x="1479.91" y="-124.13" font-family="arial" font-size="14.00">C:2:RTN</text>
<text text-anchor="start" x="1536.41" y="-124.13" font-family="arial" font-size="14.00"> &#160;&#160;&#160;&#160;1:BK &#160;&#160;&#160;</text>
<text text-anchor="start" x="1603.41" y="-124.13" font-family="arial" font-size="14.00">A:2:RTN</text>
<polygon fill="#000000" stroke="none" points="1477.91,-117.68 1477.91,-119.68 1657.16,-119.68 1657.16,-117.68 1477.91,-117.68"/>
<polygon fill="#000000" stroke="none" points="1477.91,-115.68 1477.91,-117.68 1657.16,-117.68 1657.16,-115.68 1477.91,-115.68"/>
<polygon fill="#000000" stroke="none" points="1477.91,-113.68 1477.91,-115.68 1657.16,-115.68 1657.16,-113.68 1477.91,-113.68"/>
<text text-anchor="start" x="1504.28" y="-98.38" font-family="arial" font-size="14.00"> </text>
</g>
<!-- C&#45;&#45;W_CA -->
<g id="edge5" class="edge">
<title>C:e&#45;&#45;W_CA:w</title>
<path fill="none" stroke="#000000" stroke-width="2" d="M1333.91,-139.68C1397.12,-140.7 1411.21,-115.7 1477.91,-114.68"/>
<path fill="none" stroke="#000000" stroke-width="2" d="M1333.91,-141.68C1398.86,-141.68 1412.95,-116.68 1477.91,-116.68"/>
<path fill="none" stroke="#000000" stroke-width="2" d="M1333.91,-143.68C1400.61,-142.66 1414.69,-117.66 1477.91,-118.68"/>
</g>
<!-- W_AB&#45;&#45;B -->
<g id="edge2" class="edge">
<title>W_AB:e&#45;&#45;B:w</title>
<path fill="none" stroke="#000000" stroke-width="2" d="M443.91,-155.68C509.73,-156.29 524.96,-172.04 587.91,-171.43"/>
<path fill="none" stroke="#ff0000" stroke-width="2" d="M443.91,-157.68C508.29,-157.68 523.52,-173.43 587.91,-173.43"/>
<path fill="none" stroke="#000000" stroke-width="2" d="M443.91,-159.68C506.85,-159.07 522.09,-174.82 587.91,-175.43"/>
</g>
<!-- W_BC&#45;&#45;C -->
<g id="edge4" class="edge">
<title>W_BC:e&#45;&#45;C:w</title>
<path fill="none" stroke="#000000" stroke-width="2" d="M1058.41,-155.68C1123.38,-155.88 1139.19,-163.63 1202.41,-163.43"/>
<path fill="none" stroke="#ff0000" stroke-width="2" d="M1058.41,-157.68C1122.5,-157.68 1138.31,-165.43 1202.41,-165.43"/>
<path fill="none" stroke="#000000" stroke-width="2" d="M1058.41,-159.68C1121.62,-159.48 1137.43,-167.23 1202.41,-167.43"/>
</g>
<!-- W_CA&#45;&#45;A -->
<g id="edge6" class="edge">
<title>W_CA:e&#45;&#45;A:w</title>
<path fill="none" stroke="#000000" stroke-width="2" d="M1658.16,-114.68C1666.33,-117.15 1662.52,-101.41 1655.77,-95.37 1440.08,114.61 1279.99,-93.52 975.41,-94.31 666.16,-94.31 666.16,-94.31 666.16,-94.31 370.35,-93.54 218.36,100.99 5.52,-99.27 2.19,-101.97 -0.22,-110.24 3.16,-107.68"/>
<path fill="none" stroke="#000000" stroke-width="2" d="M1658.16,-116.68C1668.28,-116.68 1664.46,-100.94 1657.16,-93.93 1438.5,115.83 1278.41,-92.31 975.41,-92.31 666.16,-92.31 666.16,-92.31 666.16,-92.31 371.92,-92.31 219.93,102.23 4.16,-97.81 0.27,-101.41 -2.14,-109.68 3.16,-109.68"/>
<path fill="none" stroke="#000000" stroke-width="2" d="M1658.16,-118.68C1670.22,-116.21 1666.4,-100.47 1658.54,-92.49 1436.91,117.05 1276.82,-91.09 975.41,-90.31 666.16,-90.31 666.16,-90.31 666.16,-90.31 373.5,-91.07 221.51,103.46 2.8,-96.34 -1.65,-100.85 -4.06,-109.12 3.16,-111.68"/>
</g>
</g>
</svg>
