<?xml version="1.0" encoding="UTF-8" standalone="no"?>
<!DOCTYPE svg PUBLIC "-//W3C//DTD SVG 1.1//EN"
 "http://www.w3.org/Graphics/SVG/1.1/DTD/svg11.dtd">
<!-- Generated by graphviz version 12.2.1 (0)
 -->
<!-- Pages: 1 -->
<svg width="706pt" height="198pt"
 viewBox="0.00 0.00 705.75 198.00" xmlns="http://www.w3.org/2000/svg" xmlns:xlink="http://www.w3.org/1999/xlink">
<g id="graph0" class="graph" transform="scale(1 1) rotate(0) translate(4 194)">
<polygon fill="#ffffff" stroke="none" points="-4,4 -4,-194 701.75,-194 701.75,4 -4,4"/>
<!-- X1 -->
<g id="node1" class="node">
<title>X1</title>
<polygon fill="#ffffff" stroke="black" points="132.25,-156.25 0,-156.25 0,-13.75 132.25,-13.75 132.25,-156.25"/>
<polygon fill="none" stroke="black" points="0,-132.5 0,-156.25 132.25,-156.25 132.25,-132.5 0,-132.5"/>
<text text-anchor="start" x="57.88" y="-138.95" font-family="arial" font-size="14.00">X1</text>
<polygon fill="none" stroke="black" points="0,-108.75 0,-132.5 94.25,-132.5 94.25,-108.75 0,-108.75"/>
<text text-anchor="start" x="4" y="-115.2" font-family="arial" font-size="14.00">D&#45;Sub diff pair</text>
<polygon fill="none" stroke="black" points="94.25,-108.75 94.25,-132.5 132.25,-132.5 132.25,-108.75 94.25,-108.75"/>
<text text-anchor="start" x="98.25" y="-115.2" font-family="arial" font-size="14.00">4&#45;pin</text>
<polygon fill="none" stroke="black" points="0,-85 0,-108.75 86.75,-108.75 86.75,-85 0,-85"/>
<text text-anchor="start" x="15.62" y="-91.45" font-family="arial" font-size="14.00">SIG_P_1</text>
<polygon fill="none" stroke="black" points="86.75,-85 86.75,-108.75 132.25,-108.75 132.25,-85 86.75,-85"/>
<text text-anchor="start" x="105.75" y="-91.45" font-family="arial" font-size="14.00">1</text>
<polygon fill="none" stroke="black" points="0,-61.25 0,-85 86.75,-85 86.75,-61.25 0,-61.25"/>
<text text-anchor="start" x="15.25" y="-67.7" font-family="arial" font-size="14.00">SIG_N_1</text>
<polygon fill="none" stroke="black" points="86.75,-61.25 86.75,-85 132.25,-85 132.25,-61.25 86.75,-61.25"/>
<text text-anchor="start" x="102" y="-67.7" font-family="arial" font-size="14.00">14</text>
<polygon fill="none" stroke="black" points="0,-37.5 0,-61.25 86.75,-61.25 86.75,-37.5 0,-37.5"/>
<text text-anchor="start" x="15.62" y="-43.95" font-family="arial" font-size="14.00">SIG_P_2</text>
<polygon fill="none" stroke="black" points="86.75,-37.5 86.75,-61.25 132.25,-61.25 132.25,-37.5 86.75,-37.5"/>
<text text-anchor="start" x="105.75" y="-43.95" font-family="arial" font-size="14.00">3</text>
<polygon fill="none" stroke="black" points="0,-13.75 0,-37.5 86.75,-37.5 86.75,-13.75 0,-13.75"/>
<text text-anchor="start" x="15.25" y="-20.2" font-family="arial" font-size="14.00">SIG_N_2</text>
<polygon fill="none" stroke="black" points="86.75,-13.75 86.75,-37.5 132.25,-37.5 132.25,-13.75 86.75,-13.75"/>
<text text-anchor="start" x="102" y="-20.2" font-family="arial" font-size="14.00">16</text>
</g>
<!-- X1&#45;&#45;X1 -->
<g id="edge1" class="edge">
<title>X1:e&#45;&#45;X1:e</title>
<path fill="none" stroke="#000000" stroke-width="2" d="M133.17,-95.1C155.35,-106.88 201.56,-106.88 199.56,-85 201.56,-63.12 155.35,-63.12 133.17,-74.9"/>
<path fill="none" stroke="#ffffff" stroke-width="2" d="M132.25,-96.88C155.35,-108.88 201.56,-108.88 201.56,-85 201.56,-61.12 155.35,-61.12 132.25,-73.12"/>
<path fill="none" stroke="#000000" stroke-width="2" d="M131.33,-98.65C155.35,-110.88 201.56,-110.88 203.56,-85 201.56,-59.12 155.35,-59.12 131.33,-71.35"/>
<text text-anchor="middle" x="203.44" y="-79.58" font-family="arial" font-size="14.00"> </text>
</g>
<!-- X1&#45;&#45;X1 -->
<g id="edge2" class="edge">
<title>X1:e&#45;&#45;X1:e</title>
<path fill="none" stroke="#000000" stroke-width="2" d="M133.17,-47.6C155.35,-59.38 201.56,-59.38 199.56,-37.5 201.56,-15.62 155.35,-15.62 133.17,-27.4"/>
<path fill="none" stroke="#ffffff" stroke-width="2" d="M132.25,-49.38C155.35,-61.38 201.56,-61.38 201.56,-37.5 201.56,-13.62 155.35,-13.62 132.25,-25.63"/>
<path fill="none" stroke="#000000" stroke-width="2" d="M131.33,-51.15C155.35,-63.38 201.56,-63.38 203.56,-37.5 201.56,-11.62 155.35,-11.62 131.33,-23.85"/>
<text text-anchor="middle" x="203.44" y="-79.58" font-family="arial" font-size="14.00"> </text>
</g>
<!-- W1 -->
<g id="node3" class="node">
<title>W1</title>
<polygon fill="#ffffff" stroke="black" points="478.25,-190 277.25,-190 277.25,0 478.25,0 478.25,-190"/>
<polygon fill="none" stroke="black" points="277.25,-166.25 277.25,-190 478.25,-190 478.25,-166.25 277.25,-166.25"/>
<text text-anchor="start" x="367.25" y="-172.7" font-family="arial" font-size="14.00">W1</text>
<polygon fill="none" stroke="black" points="277.25,-142.5 277.25,-166.25 367.62,-166.25 367.62,-142.5 277.25,-142.5"/>
<text text-anchor="start" x="315.31" y="-148.95" font-family="arial" font-size="14.00">4x</text>
<polygon fill="none" stroke="black" points="367.62,-142.5 367.62,-166.25 478.25,-166.25 478.25,-142.5 367.62,-142.5"/>
<text text-anchor="start" x="405.69" y="-148.95" font-family="arial" font-size="14.00">0.1 m</text>
<text text-anchor="start" x="325" y="-127.2" font-family="arial" font-size="14.00"> </text>
<text text-anchor="start" x="283.38" y="-107.45" font-family="arial" font-size="14.00">X1:1:SIG_P_1</text>
<text text-anchor="start" x="379.25" y="-107.45" font-family="arial" font-size="14.00"> &#160;&#160;&#160;&#160;1:RD &#160;&#160;&#160;</text>
<text text-anchor="start" x="448.5" y="-107.45" font-family="arial" font-size="14.00">X2:1</text>
<polygon fill="#000000" stroke="none" points="277.25,-101 277.25,-103 478.25,-103 478.25,-101 277.25,-101"/>
<polygon fill="#ff0000" stroke="none" points="277.25,-99 277.25,-101 478.25,-101 478.25,-99 277.25,-99"/>
<polygon fill="#000000" stroke="none" points="277.25,-97 277.25,-99 478.25,-99 478.25,-97 277.25,-97"/>
<text text-anchor="start" x="279.25" y="-81.7" font-family="arial" font-size="14.00">X1:14:SIG_N_1</text>
<text text-anchor="start" x="380" y="-81.7" font-family="arial" font-size="14.00"> &#160;&#160;&#160;&#160;2:BK &#160;&#160;&#160;</text>
<text text-anchor="start" x="448.5" y="-81.7" font-family="arial" font-size="14.00">X2:2</text>
<polygon fill="#000000" stroke="none" points="277.25,-75.25 277.25,-77.25 478.25,-77.25 478.25,-75.25 277.25,-75.25"/>
<polygon fill="#000000" stroke="none" points="277.25,-73.25 277.25,-75.25 478.25,-75.25 478.25,-73.25 277.25,-73.25"/>
<polygon fill="#000000" stroke="none" points="277.25,-71.25 277.25,-73.25 478.25,-73.25 478.25,-71.25 277.25,-71.25"/>
<text text-anchor="start" x="283.38" y="-55.95" font-family="arial" font-size="14.00">X1:3:SIG_P_2</text>
<text text-anchor="start" x="380" y="-55.95" font-family="arial" font-size="14.00"> &#160;&#160;&#160;&#160;3:YE &#160;&#160;&#160;</text>
<text text-anchor="start" x="448.5" y="-55.95" font-family="arial" font-size="14.00">X2:3</text>
<polygon fill="#000000" stroke="none" points="277.25,-49.5 277.25,-51.5 478.25,-51.5 478.25,-49.5 277.25,-49.5"/>
<polygon fill="#ffff00" stroke="none" points="277.25,-47.5 277.25,-49.5 478.25,-49.5 478.25,-47.5 277.25,-47.5"/>
<polygon fill="#000000" stroke="none" points="277.25,-45.5 277.25,-47.5 478.25,-47.5 478.25,-45.5 277.25,-45.5"/>
<text text-anchor="start" x="279.25" y="-30.2" font-family="arial" font-size="14.00">X1:16:SIG_N_2</text>
<text text-anchor="start" x="378.5" y="-30.2" font-family="arial" font-size="14.00"> &#160;&#160;&#160;&#160;4:GN &#160;&#160;&#160;</text>
<text text-anchor="start" x="448.5" y="-30.2" font-family="arial" font-size="14.00">X2:4</text>
<polygon fill="#000000" stroke="none" points="277.25,-23.75 277.25,-25.75 478.25,-25.75 478.25,-23.75 277.25,-23.75"/>
<polygon fill="#00ff00" stroke="none" points="277.25,-21.75 277.25,-23.75 478.25,-23.75 478.25,-21.75 277.25,-21.75"/>
<polygon fill="#000000" stroke="none" points="277.25,-19.75 277.25,-21.75 478.25,-21.75 478.25,-19.75 277.25,-19.75"/>
<text text-anchor="start" x="325" y="-4.45" font-family="arial" font-size="14.00"> </text>
</g>
<!-- X1&#45;&#45;W1 -->
<g id="edge3" class="edge">
<title>X1:e&#45;&#45;W1:w</title>
<path fill="none" stroke="#000000" stroke-width="2" d="M132.25,-94.88C197.09,-94.91 213.17,-98.04 277.25,-98"/>
<path fill="none" stroke="#ff0000" stroke-width="2" d="M132.25,-96.87C196.71,-96.88 212.79,-100 277.25,-100"/>
<path fill="none" stroke="#000000" stroke-width="2" d="M132.25,-98.87C196.33,-98.84 212.41,-101.96 277.25,-102"/>
</g>
<!-- X1&#45;&#45;W1 -->
<g id="edge5" class="edge">
<title>X1:e&#45;&#45;W1:w</title>
<path fill="none" stroke="#000000" stroke-width="2" d="M132.25,-71.13C196.84,-71.13 212.94,-72.25 277.25,-72.25"/>
<path fill="none" stroke="#000000" stroke-width="2" d="M132.25,-73.12C196.7,-73.12 212.8,-74.25 277.25,-74.25"/>
<path fill="none" stroke="#000000" stroke-width="2" d="M132.25,-75.12C196.56,-75.12 212.66,-76.25 277.25,-76.25"/>
</g>
<!-- X1&#45;&#45;W1 -->
<g id="edge7" class="edge">
<title>X1:e&#45;&#45;W1:w</title>
<path fill="none" stroke="#000000" stroke-width="2" d="M132.25,-47.38C196.59,-47.38 212.7,-46.5 277.25,-46.5"/>
<path fill="none" stroke="#ffff00" stroke-width="2" d="M132.25,-49.38C196.7,-49.38 212.8,-48.5 277.25,-48.5"/>
<path fill="none" stroke="#000000" stroke-width="2" d="M132.25,-51.37C196.8,-51.37 212.91,-50.5 277.25,-50.5"/>
</g>
<!-- X1&#45;&#45;W1 -->
<g id="edge9" class="edge">
<title>X1:e&#45;&#45;W1:w</title>
<path fill="none" stroke="#000000" stroke-width="2" d="M132.25,-23.63C196.36,-23.66 212.44,-20.78 277.25,-20.75"/>
<path fill="none" stroke="#00ff00" stroke-width="2" d="M132.25,-25.62C196.71,-25.63 212.79,-22.75 277.25,-22.75"/>
<path fill="none" stroke="#000000" stroke-width="2" d="M132.25,-27.62C197.06,-27.59 213.14,-24.72 277.25,-24.75"/>
</g>
<!-- X2 -->
<g id="node2" class="node">
<title>X2</title>
<polygon fill="#ffffff" stroke="black" points="697.75,-156.25 623.25,-156.25 623.25,-13.75 697.75,-13.75 697.75,-156.25"/>
<polygon fill="none" stroke="black" points="623.25,-132.5 623.25,-156.25 697.75,-156.25 697.75,-132.5 623.25,-132.5"/>
<text text-anchor="start" x="652.25" y="-138.95" font-family="arial" font-size="14.00">X2</text>
<polygon fill="none" stroke="black" points="623.25,-108.75 623.25,-132.5 659.75,-132.5 659.75,-108.75 623.25,-108.75"/>
<text text-anchor="start" x="627.25" y="-115.2" font-family="arial" font-size="14.00">Peer</text>
<polygon fill="none" stroke="black" points="659.75,-108.75 659.75,-132.5 697.75,-132.5 697.75,-108.75 659.75,-108.75"/>
<text text-anchor="start" x="663.75" y="-115.2" font-family="arial" font-size="14.00">4&#45;pin</text>
<polygon fill="none" stroke="black" points="623.25,-85 623.25,-108.75 697.75,-108.75 697.75,-85 623.25,-85"/>
<text text-anchor="start" x="656.75" y="-91.45" font-family="arial" font-size="14.00">1</text>
<polygon fill="none" stroke="black" points="623.25,-61.25 623.25,-85 697.75,-85 697.75,-61.25 623.25,-61.25"/>
<text text-anchor="start" x="656.75" y="-67.7" font-family="arial" font-size="14.00">2</text>
<polygon fill="none" stroke="black" points="623.25,-37.5 623.25,-61.25 697.75,-61.25 697.75,-37.5 623.25,-37.5"/>
<text text-anchor="start" x="656.75" y="-43.95" font-family="arial" font-size="14.00">3</text>
<polygon fill="none" stroke="black" points="623.25,-13.75 623.25,-37.5 697.75,-37.5 697.75,-13.75 623.25,-13.75"/>
<text text-anchor="start" x="656.75" y="-20.2" font-family="arial" font-size="14.00">4</text>
</g>
<!-- W1&#45;&#45;X2 -->
<g id="edge4" class="edge">
<title>W1:e&#45;&#45;X2:w</title>
<path fill="none" stroke="#000000" stroke-width="2" d="M478.25,-98C542.33,-98.04 558.41,-94.91 623.25,-94.88"/>
<path fill="none" stroke="#ff0000" stroke-width="2" d="M478.25,-100C542.71,-100 558.79,-96.88 623.25,-96.87"/>
<path fill="none" stroke="#000000" stroke-width="2" d="M478.25,-102C543.09,-101.96 559.17,-98.84 623.25,-98.87"/>
</g>
<!-- W1&#45;&#45;X2 -->
<g id="edge6" class="edge">
<title>W1:e&#45;&#45;X2:w</title>
<path fill="none" stroke="#000000" stroke-width="2" d="M478.25,-72.25C542.56,-72.25 558.66,-71.13 623.25,-71.13"/>
<path fill="none" stroke="#000000" stroke-width="2" d="M478.25,-74.25C542.7,-74.25 558.8,-73.12 623.25,-73.12"/>
<path fill="none" stroke="#000000" stroke-width="2" d="M478.25,-76.25C542.84,-76.25 558.94,-75.12 623.25,-75.12"/>
</g>
<!-- W1&#45;&#45;X2 -->
<g id="edge8" class="edge">
<title>W1:e&#45;&#45;X2:w</title>
<path fill="none" stroke="#000000" stroke-width="2" d="M478.25,-46.5C542.8,-46.5 558.91,-47.38 623.25,-47.38"/>
<path fill="none" stroke="#ffff00" stroke-width="2" d="M478.25,-48.5C542.7,-48.5 558.8,-49.38 623.25,-49.38"/>
<path fill="none" stroke="#000000" stroke-width="2" d="M478.25,-50.5C542.59,-50.5 558.7,-51.37 623.25,-51.37"/>
</g>
<!-- W1&#45;&#45;X2 -->
<g id="edge10" class="edge">
<title>W1:e&#45;&#45;X2:w</title>
<path fill="none" stroke="#000000" stroke-width="2" d="M478.25,-20.75C543.06,-20.78 559.14,-23.66 623.25,-23.63"/>
<path fill="none" stroke="#00ff00" stroke-width="2" d="M478.25,-22.75C542.71,-22.75 558.79,-25.63 623.25,-25.62"/>
<path fill="none" stroke="#000000" stroke-width="2" d="M478.25,-24.75C542.36,-24.72 558.44,-27.59 623.25,-27.62"/>
</g>
</g>
</svg>
